<svg xmlns="http://www.w3.org/2000/svg" width="24" height="24" viewBox="0 0 24 24" fill="none"
    stroke="currentColor" stroke-width="2" stroke-linecap="round" stroke-linejoin="round"
    class="lucide lucide-newspaper h-5 w-5 text-blue-600"
    data-lov-id="src/components/CampaignSummary.tsx:72:20" data-lov-name="IconComponent"
    data-component-path="src/components/CampaignSummary.tsx" data-component-line="72"
    data-component-file="CampaignSummary.tsx" data-component-name="IconComponent"
    data-component-content="%7B%7D">
    <path
        d="M4 22h16a2 2 0 0 0 2-2V4a2 2 0 0 0-2-2H8a2 2 0 0 0-2 2v16a2 2 0 0 1-2 2Zm0 0a2 2 0 0 1-2-2v-9c0-1.1.9-2 2-2h2"></path>
    <path d="M18 14h-8"></path>
    <path d="M15 18h-5"></path>
    <path d="M10 6h8v4h-8V6Z"></path>
</svg>