<svg xmlns="http://www.w3.org/2000/svg" width="24" height="24" viewBox="0 0 24 24" fill="none" stroke="rgb(22 163 74)" stroke-width="2" stroke-linecap="round" stroke-linejoin="round" class="lucide lucide-save h-3 w-3 mr-1" data-lov-id="src/components/CoverageItemNotation.tsx:51:14" data-lov-name="Save" data-component-path="src/components/CoverageItemNotation.tsx" data-component-line="51" data-component-file="CoverageItemNotation.tsx" data-component-name="Save" data-component-content="%7B%22className%22%3A%22h-3%20w-3%20mr-1%22%7D"><path d="M15.2 3a2 2 0 0 1 1.4.6l3.8 3.8a2 2 0 0 1 .6 1.4V19a2 2 0 0 1-2 2H5a2 2 0 0 1-2-2V5a2 2 0 0 1 2-2z"></path><path d="M17 21v-7a1 1 0 0 0-1-1H8a1 1 0 0 0-1 1v7"></path><path d="M7 3v4a1 1 0 0 0 1 1h7"></path></svg>