<svg xmlns="http://www.w3.org/2000/svg" width="24" height="24" viewBox="0 0 24 24" fill="rgb(133 77 14)"
    stroke="rgb(133 77 14)" stroke-width="2" stroke-linecap="round" stroke-linejoin="round"
    class="lucide lucide-star h-4 w-4 text-yellow-800 fill-current"
    data-lov-id="src/components/Highlights.tsx:51:24" data-lov-name="Star"
    data-component-path="src/components/Highlights.tsx" data-component-line="51"
    data-component-file="Highlights.tsx" data-component-name="Star"
    data-component-content="%7B%22className%22%3A%22h-4%20w-4%20text-yellow-800%20fill-current%22%7D">
    <path
        d="M11.525 2.295a.53.53 0 0 1 .95 0l2.31 4.679a2.123 2.123 0 0 0 1.595 1.16l5.166.756a.53.53 0 0 1 .294.904l-3.736 3.638a2.123 2.123 0 0 0-.611 1.878l.882 5.14a.53.53 0 0 1-.771.56l-4.618-2.428a2.122 2.122 0 0 0-1.973 0L6.396 21.01a.53.53 0 0 1-.77-.56l.881-5.139a2.122 2.122 0 0 0-.611-1.879L2.16 9.795a.53.53 0 0 1 .294-.906l5.165-.755a2.122 2.122 0 0 0 1.597-1.16z"></path>
</svg>